<?xml version="1.0" encoding="UTF-8"?>
<svg width="25px" height="28px" viewBox="0 0 25 28" version="1.1" xmlns="http://www.w3.org/2000/svg" xmlns:xlink="http://www.w3.org/1999/xlink">
    <!-- Generator: Sketch 46 (44423) - http://www.bohemiancoding.com/sketch -->
    <title>apply-icon</title>
    <desc>Created with Sketch.</desc>
    <defs></defs>
    <g id="Page-1" stroke="none" stroke-width="1" fill="none" fill-rule="evenodd">
        <g id="Mobile-Landing-Page" transform="translate(-35.000000, -6540.000000)" fill-rule="nonzero" fill="#000000">
            <g id="sticky-menu" transform="translate(0.000000, 6530.000000)">
                <path d="M43.0879853,34.5 L46.4877269,38 L38.3997416,38 C36.5247841,38 35,36.43025 35,34.5 L35,13.5 C35,11.56975 36.5247841,10 38.3997416,10 L51.9987081,10 C53.8736656,10 55.3984497,11.56975 55.3984497,13.5 L55.3984497,25.32475 L52.000408,28.82475 L51.9987081,13.5 L38.3997416,13.5 L38.3997416,34.5 L43.0879853,34.5 Z M51.9987081,38 C51.5635412,38 51.1283742,37.8285 50.7968994,37.48725 L47.3971578,33.98725 L49.8007751,31.51275 L51.9987081,33.7755 L57.5963827,28.01275 L60,30.48725 L53.2005168,37.48725 C52.869042,37.8285 52.433875,38 51.9987081,38 Z M45.1992249,31 C44.2604121,31 43.499354,30.2164983 43.499354,29.25 C43.499354,28.2835017 44.2604121,27.5 45.1992249,27.5 C46.1380376,27.5 46.8990957,28.2835017 46.8990957,29.25 C46.8990957,30.2164983 46.1380376,31 45.1992249,31 Z" id="apply-icon"></path>
            </g>
        </g>
    </g>
</svg>